<svg width="119" height="118" viewBox="0 0 119 118" fill="none" xmlns="http://www.w3.org/2000/svg">
<circle cx="59" cy="59" r="31" stroke="#78B7E9" stroke-width="2"/>
<circle cx="59" cy="59" r="44" stroke="#78B7E9" stroke-opacity="0.5" stroke-width="2"/>
<path d="M118 59C118 91.0246 91.8166 117 59.5 117C27.1834 117 1 91.0246 1 59C1 26.9754 27.1834 1 59.5 1C91.8166 1 118 26.9754 118 59Z" stroke="#78B7E9" stroke-opacity="0.2" stroke-width="2"/>
<path fill-rule="evenodd" clip-rule="evenodd" d="M63.91 58.4348C63.91 56.851 63.4075 55.3995 62.5713 54.2689L62.8604 54C63.7504 55.2033 64.2856 56.7492 64.2856 58.4348C64.2856 59.9841 63.8333 61.4156 63.0689 62.5714L62.7673 62.3205C63.4853 61.2347 63.91 59.8907 63.91 58.4348Z" fill="#78B7E9"/>
<path fill-rule="evenodd" clip-rule="evenodd" d="M66.8885 58.228C66.8885 56.0951 66.2389 54.1275 65.1426 52.5442L65.46 52.2856C66.6062 53.9409 67.2854 55.9987 67.2854 58.228C67.2854 60.3186 66.688 62.2586 65.6682 63.8571L65.3418 63.612C66.3171 62.0832 66.8885 60.2283 66.8885 58.228Z" fill="#78B7E9"/>
<path fill-rule="evenodd" clip-rule="evenodd" d="M70.2515 58.6584C70.2515 55.8964 69.3113 53.3408 67.7144 51.257L68.0892 51C69.7412 53.1558 70.7144 55.8008 70.7144 58.6584C70.7144 61.3775 69.8333 63.9041 68.3246 66L67.9419 65.7536C69.4002 63.7279 70.2515 61.2867 70.2515 58.6584Z" fill="#78B7E9"/>
<path d="M59.9809 52.7144C59.8987 52.7144 59.815 52.7377 59.7383 52.7916L54.7954 56.1683H52.5087C52.386 56.1683 52.2856 56.2732 52.2856 56.4015V60.5987C52.2856 60.7269 52.386 60.8318 52.5087 60.8318H54.7954L59.7383 64.2085C59.815 64.261 59.9001 64.2858 59.9809 64.2858C60.2138 64.2858 60.4285 64.092 60.4285 63.818V53.1822C60.4285 52.9082 60.2138 52.7144 59.9809 52.7144Z" fill="#78B7E9"/>
</svg>
